<svg width="3860" height="544" viewBox="0 0 3860 544" fill="none" xmlns="http://www.w3.org/2000/svg">
<path d="M226.351 0.0322316C222.699 0.207675 219.151 1.13568 215.73 3.3218C229.813 6.13814 246.317 8.03109 255.207 20.8662C259.662 25.5986 258.275 32.8702 253.819 37.0255C245.396 47.0673 230.931 50.2184 218.56 47.0096C176.612 37.1063 136.941 17.8536 93.8422 12.8442C70.7575 9.79706 48.1922 20.9008 32.2637 36.9678C17.5588 51.7189 12.2123 74.1111 15.1233 94.3333C18.376 110.331 30.2323 126.952 47.3842 129.307C37.227 118.272 35.2994 99.1118 45.826 87.6387C51.7819 80.2516 62.3662 79.2359 71.1615 80.5979C104.565 86.8077 137.115 96.8611 170.426 103.625C189.078 108.704 207.511 114.763 226.579 118.226C226.926 141.011 226.926 163.772 226.579 186.557C214.275 195.744 202.525 205.636 190.452 215.124C202.202 223.919 214.321 232.161 226.466 240.402C227.251 272.628 226.351 304.845 226.928 337.069C207.052 352.42 180.421 354.914 156.231 352.074C130.535 350.645 107.728 335.338 90.8989 316.755C119.111 301.703 147.863 287.506 176.719 273.704C177.732 222.892 176.901 172.06 177.178 121.227C141.12 136.347 105.431 152.276 69.4878 167.627C79.876 141.057 101.008 119.53 126.219 106.741C119.637 107.134 112.735 106.649 106.597 109.511C59.4114 128.141 20.5252 168.181 5.89175 217.029C-3.89617 248.054 -0.745103 281.975 9.87387 312.311C23.0322 346.061 47.375 375.934 79.6474 392.992C97.7712 402.364 117.278 411.146 138.054 411.402C181.061 414.98 226.305 398.754 255.324 366.387C267.996 352.79 274.381 335.063 280.66 317.909C286.48 301.013 289.109 283.028 288.509 265.16C274.589 292.769 256.075 318.703 230.797 337.011C230.956 304.9 230.739 272.801 230.852 240.69C241.843 232.311 252.875 223.942 263.517 215.124C252.598 205.452 241.748 195.791 230.852 186.095C230.901 163.518 230.806 140.895 230.852 118.341C255.438 117.049 283.728 104.075 290.353 78.2894C294.97 61.4607 297.382 41.527 287.064 26.2911C277.576 15.4874 265.272 6.10351 250.821 3.49494C242.819 2.79547 234.382 -0.350975 226.351 0.0322316ZM111.329 154.873C111.237 203.813 111.617 252.752 111.156 301.694C102.984 304.903 94.948 308.412 86.9168 311.964C72.0964 290.521 62.8856 265.276 58.638 239.652C57.4838 218.021 61.5005 196.114 69.0262 175.822C83.2463 169.059 97.1549 161.752 111.329 154.873ZM2931.01 0.0322316C2927.05 -0.0878089 2923.18 0.690146 2919.53 3.3218C2927.84 5.23784 2936.62 6.05734 2944.4 9.95866C2951.33 13.2829 2955.91 20.1621 2958.31 27.2722C2959.6 34.9594 2953.97 42.0464 2947.23 44.932C2935.13 50.5185 2921.41 47.933 2909.08 44.5857C2879.53 35.5365 2850.76 23.8326 2820.61 16.7687C2805.12 13.4675 2788.88 10.3511 2773.23 14.4602C2756.26 19.2387 2739.04 27.3645 2729.02 42.5081C2716.09 59.1984 2714.47 82.1561 2720.77 101.778C2725.96 114.867 2736.49 127.737 2751.36 129.422C2746.51 123.189 2738.16 116.899 2740.57 108.011C2741.9 99.1926 2745.56 90.2473 2752.63 84.5223C2759.69 79.1897 2769.36 79.259 2777.56 81.6367C2807.62 87.2232 2836.96 95.6607 2866.67 102.702C2886.8 106.972 2906.13 114.486 2926.4 118.226C2926.75 140.918 2926.48 163.611 2926.57 186.326C2915.68 195.952 2904.78 205.567 2894.02 215.355C2904.87 223.735 2915.52 232.322 2926.51 240.517C2926.67 272.815 2926.46 305.154 2926.69 337.473C2907.62 351.76 2882.52 355.283 2859.39 352.072C2833.84 350.548 2811.49 335.176 2794.53 316.985C2801.47 312.135 2809.42 309.021 2816.92 305.097C2838.02 294.709 2858.85 283.836 2880.11 273.817C2880.78 222.961 2880.19 172.083 2880.4 121.227C2844.57 136.486 2809.02 152.461 2773.06 167.396C2781.27 147.89 2794.41 130.045 2812.07 118.111C2817.36 113.286 2822.71 108.23 2829.96 106.568C2822.71 107.076 2815.21 106.834 2808.6 110.204C2757.94 130.703 2714.72 175.418 2705.19 230.36C2701.56 258.246 2704.16 287.206 2713.9 313.638C2726.39 344.664 2748.38 372.227 2776.98 389.818C2790.67 398.151 2805.37 404.857 2820.72 409.495C2857.47 415.612 2896.89 410.326 2929.05 390.796C2950.26 375.999 2969.97 356.816 2978.85 331.93C2988.39 310.808 2992.22 287.735 2992.7 264.696C2988.27 270.49 2985.67 277.381 2981.91 283.568C2969.7 304.067 2953.9 322.639 2934.65 336.836C2934.88 304.633 2934.36 272.43 2934.93 240.226C2945.83 232.354 2956.05 223.582 2967.02 215.757C2956.91 205.276 2945.43 196.227 2934.7 186.439C2934.49 163.862 2934.95 141.262 2934.47 118.685C2955.59 117.323 2976.96 107.847 2988.31 89.3101C3000.13 70.2652 3000.06 44.318 2988.66 25.1346C2979.68 13.269 2965.56 5.62797 2950.98 3.43492C2944.43 2.90397 2937.61 0.235377 2931.01 0.0322316ZM2815.07 154.815C2815.35 203.663 2815.07 252.498 2815.18 301.345C2806.85 304.831 2798.62 308.513 2790.31 312.022C2778.26 295.078 2768.88 276.022 2764.05 255.753C2758.72 229.206 2760.13 200.431 2772.48 175.938C2786.79 169.105 2800.89 161.948 2815.07 154.815ZM1098.24 16.307C1111.99 40.4074 1103.38 73.0723 1082.68 90.432C1069.96 98.7194 1055.32 103.29 1040.99 107.93C1041.31 206.502 1041.03 305.097 1041.08 403.668C1042.09 408.17 1037.96 411.7 1033.72 409.901C1025.33 409.509 1023.12 400.667 1019.56 394.712C967.991 299.88 916.976 204.724 864.987 110.1C863.995 179.701 864.964 249.37 864.502 318.991C889.064 323.634 912.98 335.476 929.047 355.006C936.504 349.235 941.328 339.077 950.885 336.746C948.462 341.155 944.93 344.777 941.559 348.473C922.976 369.041 904.439 389.702 885.879 410.317C877.271 399.467 865.797 389.171 851.436 387.694C841.995 387.324 831.078 387.809 824.196 395.266C816.278 402.33 810.971 414.241 816.625 424.329C823.25 438.803 839.917 442.728 853.953 446.19C836.408 449.653 816.765 447.622 802.615 435.872C791.349 426.245 781.12 414.031 778.191 399.121C774.243 378.575 780.384 355.742 795.735 341.176C812.52 324.578 837.126 318.391 860.165 319.707C860.788 289.371 860.511 259.04 860.303 228.707C849.107 226.93 833.848 228.522 828.631 240.226C825.607 249.714 832.719 257.702 839.758 262.896C831.032 261.372 821.336 259.71 815.034 252.946C807.601 243.781 801.83 232.955 799.683 221.274C797.536 206.246 801.483 189.117 813.995 179.444C827.084 169.31 844.513 167.925 860.488 168.294V104.165C854.694 95.4621 849.13 85.4895 839.183 80.988C832.673 78.2871 824.178 77.3175 818.568 82.3962C810.812 88.9753 808.94 99.4327 805.872 108.597C802.894 86.2283 805.133 60.8581 820.808 43.3138C839.737 18.7978 879.789 17.8975 900.496 40.5667C909.453 49.7775 915.593 61.1352 921.69 72.3312C960.011 140.57 997.57 209.247 1036.28 277.254C1036.51 220.858 1036.63 164.418 1036.24 108.02C1029.59 105.435 1022.18 105.504 1015.41 103.149C1002.81 99.8251 992.304 91.6993 982.978 82.9041C977.16 89.7371 971.295 96.5471 965.872 103.68C964.602 102.988 962.086 101.626 960.819 100.933C980.672 75.9094 1001.95 52.0167 1022.62 27.6392C1033.44 39.0431 1047.57 48.3693 1063.68 49.4081C1080.51 47.4713 1097.06 34.0129 1098.24 16.307ZM2386.87 70.9023C2414.57 52.8501 2442.23 34.6362 2470.02 16.7225C2470.25 123.235 2469.82 229.771 2470.25 336.284C2476.26 344.456 2484.45 351.174 2491.73 358.355C2496.29 353.462 2501.05 348.775 2505.76 344.043C2506.87 345.149 2509.08 347.367 2510.22 348.452C2488.03 367.679 2466.54 387.648 2444.22 406.672C2430.16 392.244 2415.61 378.324 2401.67 363.824C2395.41 369.388 2389.69 375.484 2383.8 381.417C2382.6 380.494 2380.2 378.622 2379 377.7C2389.64 367.52 2401.05 358.194 2411.81 348.106C2411.71 267.379 2411.88 186.651 2411.71 105.947C2411.46 90.8475 2403.77 72.7722 2386.87 70.9023ZM318.41 74.0418C342.257 56.2666 365.642 37.845 389.511 20.139C389.627 78.8204 389.488 137.525 389.581 196.229C409.78 179.562 430.138 163.103 450.129 146.205C466.173 162.849 481.155 180.532 497.684 196.645C504.658 191.635 511.812 186.88 519.13 182.401C517.816 191.705 506.687 194.89 500.916 201.377C500.985 233.465 500.916 265.53 500.939 297.617C501.401 321.605 497.938 345.426 497.225 369.388C496.137 395.381 486.052 421.954 465.783 439.011C449.298 453.741 426.77 459.049 405.278 460.826C404.909 461.334 404.124 462.373 403.731 462.902L404.309 461.011C396.898 461.011 389.511 460.734 382.124 460.18C391.407 455.378 401.908 452.308 409.226 444.367C417.628 434.992 427.416 426.061 431.549 413.803C438.312 395.104 438.52 374.951 439.19 355.329C439.005 311.353 439.397 267.353 438.982 223.4C429.194 210.634 417.467 199.369 407.079 187.042C401.4 193.113 394.592 198.215 389.719 204.955C389.327 250.34 389.673 295.747 389.557 341.13C395.446 346.995 401.308 352.905 407.24 358.722C411.998 353.944 416.751 349.142 421.507 344.341C422.571 345.38 424.669 347.457 425.731 348.496C402.646 366.548 379.795 384.88 356.71 402.907C342.098 389.933 327.831 376.59 313.449 363.363C308.625 366.964 303.8 370.611 298.952 374.187C297.916 373.102 295.882 370.932 294.845 369.847C305.926 362.714 316.799 355.26 327.764 347.986C327.741 267.282 327.741 186.601 327.764 105.896C327.531 99.7328 327.834 93.0844 324.579 87.5902C322.429 83.3888 317.584 82.0499 313.957 79.5106C313.147 76.8351 316.979 75.7039 318.41 74.0418ZM1908.36 31.1966C1886.66 48.7641 1865.45 66.874 1843.95 84.6954C1843.72 67.8898 1844.24 51.1187 1843.67 34.313C1840.34 34.1514 1838.88 35.6519 1839.34 38.8146C1839.22 157.608 1839.37 276.391 1839.28 395.185C1827.56 392.943 1815.81 390.602 1804.19 387.971C1804.01 287.783 1804.18 187.616 1804.14 87.4079C1803.88 74.7344 1799.77 61.9916 1791.44 52.3191C1781.05 40.015 1764.81 34.3015 1749.14 33.2165C1730.55 32.6856 1713.52 42.4504 1700.54 55.0316C1688.61 66.3662 1682.2 83.8875 1685.6 100.162C1687.05 90.0742 1690.34 78.7049 1699.62 73.0954C1709.8 68.7554 1723.36 72.2528 1729.46 81.8098C1734.67 89.5201 1735.19 99.158 1735.4 108.184C1735.45 135.262 1735.38 162.341 1735.4 189.442C1717.53 189.719 1696.43 192.605 1686.11 209.18C1675.72 222.153 1672.52 240.552 1679.65 255.811C1684.34 270.908 1700.03 278.69 1714.62 281.089C1706.45 275.805 1698.14 266.501 1702.96 256.157C1709.45 245.769 1724.2 244.245 1735.17 247.27C1735.6 295.33 1735.4 343.371 1735.28 391.434C1718.89 397.156 1702.94 407.097 1694.19 422.54C1687.82 433.552 1687.66 446.721 1688.19 459.072C1690.15 480.725 1704.44 500.495 1723.62 510.378C1738.12 517.164 1754.44 517.372 1770.14 516.841C1814.69 514.189 1857.02 496.504 1901.66 495.029C1914.96 494.034 1922.75 508.729 1919.27 520.249C1916.61 530.66 1907.89 537.701 1899.64 543.795C1915.32 540.471 1930.92 534.584 1943.16 523.94C1956.96 512.238 1963.31 493.364 1962.44 475.635C1961.4 458.091 1947.25 445.036 1932.54 437.488C1913.17 426.13 1889.79 428.66 1868.48 430.968C1828.45 435.585 1789.44 448.294 1749.02 449.379C1735.31 450.302 1722.51 440.595 1719.76 427.159C1716.67 414.211 1727.18 402.884 1737.82 397.322C1760.86 386.45 1787.37 390.476 1811.41 395.533C1839.27 398.444 1865.41 409.811 1893.3 412.674C1909.13 414.474 1925.95 411.43 1938.95 401.826C1952.34 393.562 1958.37 377.458 1958.74 362.294C1958.9 267.739 1958.57 173.193 1958.92 78.6403C1967.55 71.1378 1977.07 64.4086 1984.6 55.7287C1974.07 58.3373 1967.47 68.206 1958.86 74.2542C1941.84 60.0987 1925.19 45.5784 1908.36 31.1966ZM1861.15 78.982C1870.85 87.2925 1880.39 95.7645 1890.06 104.144C1890.09 133.924 1889.99 163.703 1890.06 193.482C1885.47 198.007 1880.45 202.785 1873.73 203.639C1862.79 205.948 1852.14 200.535 1843.89 193.771C1843.94 159.005 1843.92 124.251 1843.89 89.4855C1849.67 86.0228 1855.43 82.5601 1861.15 78.982ZM1843.89 202.023C1858.07 209.226 1876.31 211.407 1890.06 202.081C1890.02 215.586 1890.02 229.148 1890.06 242.653C1884.48 237.205 1877.3 232.876 1869.29 232.899C1859.87 232.692 1851.21 237.135 1843.89 242.653C1843.94 229.125 1843.87 215.574 1843.89 202.023ZM1869.17 237.17C1878.31 237.401 1885.33 244.222 1890.06 251.425C1890 289.122 1890.09 326.843 1890.06 364.54C1890.8 376.105 1882.84 385.997 1874.14 392.646C1865.74 399.317 1854.33 399.548 1844.13 398.994C1843.55 349.754 1844.1 300.436 1843.89 251.194C1850.5 244.015 1858.85 237.031 1869.17 237.17ZM3005.66 92.6481C3020.61 79.536 3034.69 65.4543 3049.98 52.7116C3062.91 66.3546 3076.53 79.3282 3089.66 92.7635C3073.89 107.515 3058.03 122.15 3042.06 136.671C3029.99 121.92 3017.57 107.515 3005.66 92.6481ZM1279.15 106.684C1288.5 100.266 1300.32 100.659 1311.12 99.2734C1302.98 105.714 1293.93 113.194 1292.82 124.297C1290.99 134.224 1297.27 143.157 1304.59 149.113C1317.91 159.778 1335.02 165.734 1345.87 179.4C1351.08 186.003 1354.25 194.359 1354.02 202.831C1353.95 247.616 1354.06 292.377 1353.95 337.138C1365.86 346.765 1377.82 356.276 1389.7 365.902C1393.17 363.663 1396.63 361.426 1400.12 359.184C1399.95 310.314 1400.37 261.42 1399.91 212.573C1393.79 205.348 1385.32 200.177 1378.32 193.736C1395.5 177.923 1412.33 161.694 1429.85 146.274C1445.08 161.233 1461.1 175.384 1476.73 189.927C1470.8 196.204 1464.69 202.316 1458.43 208.256C1458.31 251.217 1458.43 294.178 1458.36 337.138C1473.96 349.235 1489.57 361.354 1505.33 373.266C1507.55 371.971 1509.79 370.703 1512.08 369.434C1511.84 316.965 1512.1 264.514 1511.94 212.042C1504.71 205.879 1497.23 199.992 1490.1 193.713C1506.95 177.785 1524.01 162.133 1540.95 146.32C1557.83 159.525 1574.73 172.729 1591.51 186.049C1597.33 179.631 1603.28 173.26 1609.93 167.65C1610.78 168.874 1612.54 171.344 1613.39 172.567C1599.03 185.356 1584.77 198.307 1570.85 211.581C1569.64 253.41 1570.82 295.378 1570.27 337.231C1533.73 361.239 1495.57 383.148 1458.49 406.508C1438.94 392.495 1419.94 377.721 1400.64 363.386C1383.33 377.306 1365.99 391.249 1348.56 405.03C1346.07 407.801 1343.51 403.761 1341.45 402.607C1325.15 389.518 1308.95 376.311 1292.44 363.524C1285.52 369.57 1278.25 375.226 1271.3 381.274C1270.19 380.212 1268.02 378.111 1266.91 377.073C1275.38 371.211 1283.67 365.045 1292.14 359.182C1292.19 318.622 1292.19 278.085 1292.14 237.525C1292.12 226.676 1288.31 215.687 1280.9 207.654C1272.75 198.812 1261.79 192.603 1255.3 182.238C1248.12 170.187 1247.48 155.252 1250.22 141.791C1254.24 126.583 1266.32 114.994 1279.15 106.684ZM3848.34 135.655C3850 139.903 3850.53 144.646 3848.46 148.871C3843.36 160.529 3829.46 165.007 3817.64 164.799C3805.27 163.691 3795.61 154.792 3787.28 146.389C3773.29 155.762 3759.24 165.065 3745.27 174.437C3729.16 185.287 3711.37 193.297 3693.5 200.754C3693.43 223.7 3693.52 246.6 3693.44 269.546C3706.49 280.419 3719.9 290.807 3732.69 301.98C3722.88 312.368 3713.2 322.904 3703.95 333.777C3694.44 345.227 3685.46 358.455 3684.9 373.831C3684.35 391.304 3691.83 410.224 3707.3 419.479C3714.13 423.496 3722.44 427.074 3730.38 423.981C3720.5 420.449 3708.35 413.292 3709.2 401.242C3711.94 389.838 3725.49 382.209 3736.73 385.487C3748.39 388.811 3758.01 397.145 3765.47 406.494C3795.43 384.91 3826.99 365.623 3859.77 348.609C3859.52 319.502 3860.18 290.32 3859.48 261.233C3845.01 251.076 3831.2 240.007 3816.89 229.665C3832.04 210.482 3847.27 190.19 3853.59 166.182C3855.95 156.05 3856.74 143.273 3848.34 135.655ZM3751.85 179.285C3761.57 193.251 3774.43 206.837 3792.07 209.699C3809.64 213.831 3826.66 204.309 3838.19 191.635C3822.42 220.791 3797.96 244.199 3772.68 265.16C3765.85 257.912 3758.5 251.159 3751.74 243.865C3752.01 222.35 3751.78 200.8 3751.85 179.285ZM3776.6 266.314C3784.18 272.686 3791.66 279.17 3799.23 285.59C3802.69 287.668 3801 292.008 3801.48 295.286C3801.27 320.286 3801.79 345.368 3801.19 370.369C3795.54 357.577 3787.06 345.68 3775.11 338.106C3757.77 326.773 3733.93 326.115 3716.3 337.124C3708.22 341.601 3701.75 348.286 3695.64 355.073C3704.38 337.99 3718.52 324.509 3731.82 310.979C3747.01 296.348 3762.2 281.735 3776.6 266.314ZM659.36 146.332C639.415 157.874 620.141 170.467 600.612 182.632C584.058 191.266 567.243 199.415 550.573 207.795C550.643 254.541 550.506 301.288 550.691 348.034C543.581 353.554 535.28 357.522 528.816 363.85C530.063 364.586 532.533 366.089 533.779 366.851C539.366 362.026 544.892 357.109 551.035 353C571.696 370.173 591.193 388.77 611.806 406.037C612.819 405.508 614.864 404.435 615.903 403.902C650.805 376.846 686.069 350.195 720.994 323.163L716.666 319.354C697.228 334.497 678.322 350.44 659.069 365.812C643.164 351.499 627.778 336.621 611.919 322.239C606.517 318.292 609.541 310.801 609.148 305.214C641.721 281.368 674.307 257.51 706.393 233.017C690.374 204.297 674.873 175.326 659.36 146.332ZM609.035 180.786C625.518 207.864 642.081 234.85 658.379 262.044C641.804 273.702 625.368 285.498 608.98 297.363C608.816 258.512 608.735 219.637 609.035 180.786ZM1199.2 146.274C1185.14 155.531 1170.99 164.672 1156.6 173.398C1135.58 186.557 1112.78 196.46 1090.76 207.795C1090.82 254.518 1090.63 301.253 1090.81 347.977C1084.03 353.032 1076.53 357.037 1069.92 362.347C1070.61 363.57 1072.06 366.029 1072.75 367.252C1080.07 362.335 1087.29 357.291 1094.8 352.651C1113.7 370.727 1132.89 388.527 1151.93 406.441C1187.55 379.984 1222.5 352.584 1257.78 325.644C1262.3 324.721 1258.58 317.38 1255.7 320.217C1236.58 335.038 1218.04 350.62 1199.2 365.81C1184.42 351.151 1169.75 336.425 1155.05 321.718C1150.29 317.539 1153.11 310.568 1152.86 305.097C1184.2 281.827 1214.58 257.231 1246 234.054C1231.53 204.274 1214.59 175.615 1199.2 146.274ZM1152.45 181.709C1168.61 208.026 1183.42 235.219 1198.33 262.275C1182.93 273.563 1168.05 285.544 1152.79 297.017C1152.08 258.604 1152.8 220.145 1152.45 181.709ZM2109.78 146.389C2094.35 155.369 2079.14 164.626 2064.18 174.322C2046.62 185.033 2027.42 192.64 2008.72 201.042C2009.16 250.074 2008.85 299.118 2008.89 348.152C2002.64 354.383 1996.33 360.595 1990.25 366.964C1991.53 366.895 1994.06 366.71 1995.33 366.62C1999.76 361.885 2004.38 357.268 2008.95 352.651C2029.94 369.826 2050.61 387.373 2071.45 404.71C2074.89 408.031 2078.78 403.082 2082.13 401.879C2115.65 383.55 2147.32 361.954 2181.85 345.495C2182.39 299.81 2182.02 254.137 2182.09 208.429C2188.32 202.197 2194.63 195.987 2200.73 189.615C2199.51 189.639 2197.07 189.742 2195.82 189.789C2190 194.567 2184.12 199.219 2178.28 203.928C2155.43 184.768 2132.67 165.457 2109.78 146.389ZM2070.7 180.266C2087.19 195.756 2103.97 211.015 2120.45 226.551C2120.29 275.19 2120.34 323.807 2120.34 372.446C2103.44 357.626 2087.39 341.908 2070.7 326.854L2070.7 180.266Z" fill="#4C4C4D"/>
<path d="M2472.91 255.349C2496.68 218.852 2520.97 182.679 2545.35 146.551C2555.91 155.519 2568.94 161.073 2582.72 162.479C2596.2 162.503 2607.7 154.492 2617.86 146.482C2615.29 166.173 2608.74 186.626 2593.62 200.315C2580.44 212.412 2560.44 215.32 2543.85 209.411C2534.06 206.086 2525.01 200.869 2516.9 194.475C2515.47 197.845 2514.3 201.331 2513.44 204.886C2547.19 255.719 2580.34 307.013 2613.49 358.261C2621.11 353.321 2627.78 347.086 2634.5 341.017C2635.82 341.845 2638.42 343.51 2639.74 344.339C2615.89 365.6 2591.29 386.006 2566.84 406.598C2535.42 356.253 2504.69 305.466 2472.91 255.349ZM3614.67 146.332C3599.98 155.265 3585.24 164.188 3570.75 173.398C3550.69 187.342 3527.68 196.022 3506.4 207.795C3506.63 254.518 3506.4 301.276 3506.51 347.977C3499.17 352.824 3491.93 357.762 3484.58 362.52C3485.53 363.674 3487.45 366.04 3488.39 367.195C3494.72 362.508 3500.43 356.945 3507.27 352.882C3526.31 370.588 3546.23 387.336 3565.56 404.765C3567.4 407.72 3570.09 404.696 3571.96 403.495C3606.77 376.671 3641.67 350.008 3676.53 323.276C3672.45 316.12 3667.81 323.057 3663.72 325.988C3647.35 339.311 3631.02 352.617 3614.61 365.867C3597.83 350.562 3581.62 334.691 3564.51 319.753C3564.25 314.948 3564.23 310.133 3564.46 305.325C3597.12 281.664 3629.41 257.448 3661.82 233.419C3646.21 204.309 3630.55 175.257 3614.67 146.332ZM3564.28 181.594C3581.94 207.702 3597.46 235.289 3614.03 262.159C3597.23 273.681 3580.88 285.867 3564.17 297.479C3564.44 258.858 3564.19 220.214 3564.28 181.594ZM2267.5 150.175C2280.71 162.202 2291.81 176.376 2304.07 189.373C2317.41 176.584 2330.45 163.426 2343.33 150.152C2352.71 156.154 2362.47 164.58 2374.5 162.156C2382.97 161.579 2387.38 153.269 2394.58 149.875C2394.61 167.535 2390.54 186.095 2378.86 199.807C2365.47 215.828 2340.15 220.514 2322.24 209.526C2315.36 206.179 2310.78 199.761 2304.37 195.814C2304.53 244.107 2304.46 292.377 2304.41 340.67C2313.92 347.988 2323.46 355.283 2333.25 362.255C2340.36 357.591 2345.83 349.004 2354.81 348.196C2333.71 368.28 2311.59 387.394 2289.59 406.531C2273.06 390.949 2256.17 375.759 2239.82 359.995C2233.45 365.717 2227.56 371.952 2221.49 377.978C2220.52 376.846 2218.58 374.605 2217.62 373.476C2225.63 364.565 2234.56 356.532 2242.75 347.783C2242.45 306.461 2242.92 265.139 2242.55 223.841C2238.16 213.407 2230.54 204.357 2225.03 194.385C2217.47 198.84 2211.98 208.12 2202.59 208.443C2223.94 188.704 2246.26 170.028 2267.5 150.175ZM3124.1 201.839C3143.75 184.641 3162.98 167.004 3182.74 149.944C3196.91 165.573 3211.57 180.763 3225.49 196.622C3246.36 181.547 3266.4 165.342 3287.06 149.944C3301.54 165.457 3315.73 181.224 3330.34 196.622C3350.82 181.109 3371.04 165.273 3391.66 149.968C3405.74 165.665 3420.26 180.97 3434.51 196.529C3443.23 190.966 3451.24 184.294 3460.13 178.962C3460.8 184.133 3456.09 186.488 3452.81 189.35C3448.05 193.182 3443.44 197.199 3438.68 201.008C3438.29 243.992 3438.78 286.975 3438.43 329.957C3446.62 338.46 3454.98 346.802 3463.5 354.981C3468 350.297 3472.62 345.701 3477 340.899C3478.32 341.73 3480.98 343.369 3482.29 344.2C3460.75 365.415 3438.55 385.986 3416.43 406.598C3400.85 388.199 3384.51 370.401 3369.29 351.679C3372.99 348.286 3376.59 344.754 3380.14 341.201C3380.19 304.125 3380.14 267.051 3380.14 230C3368.37 216.867 3356.64 203.683 3344.5 190.897C3340.99 194.475 3337.48 198.03 3334.02 201.629C3333.97 247.983 3334.2 294.337 3333.9 340.691C3339.74 347.247 3346.32 353.111 3352.25 359.644C3336.3 373.795 3320.93 388.615 3305.07 402.904C3290.26 387.324 3275.67 371.524 3261.33 355.512C3265.41 350.479 3273.6 346.832 3272.31 339.168C3272.13 303.017 3272.5 266.843 3272.13 230.718C3262.25 216.959 3251.17 203.639 3239.72 191.081C3236.37 194.636 3232.98 198.122 3229.56 201.608C3229.66 246.508 3229.31 291.431 3229.72 336.33C3234.57 344.592 3241.8 351.359 3247.82 358.813C3232.33 375.09 3216.33 390.9 3200.2 406.529C3184.78 388.156 3168.8 370.265 3153.27 352.005C3158.12 348.24 3163.01 344.525 3167.88 340.763C3167.74 302.832 3167.6 264.883 3167.95 226.955C3158.86 215.69 3148.88 205.163 3139.32 194.29C3132.54 199.323 3126.56 205.648 3118.8 209.203C3118.42 205.671 3121.91 203.986 3124.1 201.839Z" fill="#4C4C4D"/>
<path d="M2987.47 204.817C3007.78 186.21 3028.81 168.32 3049.33 149.921C3063.95 166.542 3078.14 183.533 3092.69 200.223C3100.24 194.313 3107 187.295 3115.35 182.425C3114.73 185.079 3114.02 187.826 3111.55 189.327C3105.29 194.521 3099.08 199.738 3092.78 204.794C3092.87 247.847 3092.59 290.877 3092.92 333.93C3101.14 343.21 3109.63 352.305 3117.3 362.091C3123.69 358.192 3129.03 352.857 3135.12 348.519C3136.41 349.209 3139.02 350.574 3140.31 351.243C3120.02 370.265 3098.97 388.502 3077.82 406.529C3063.76 389.633 3049.34 373.01 3034.96 356.368C3028.7 362.047 3023.48 368.926 3016.63 373.866C3015.66 372.966 3013.72 371.119 3012.75 370.196C3018.84 364.424 3024.59 358.284 3030.78 352.559C3031.26 313.453 3030.8 274.302 3031.01 235.194C3030.64 229.746 3032.4 223.305 3028.15 218.965C3020.62 209.616 3013.7 199.782 3005.69 190.848C2999.73 195.675 2994.07 200.915 2987.47 204.817Z" fill="#4C4C4D"/>
</svg>
